<?xml version="1.0" encoding="UTF-8"?>
<svg width="353px" height="44px" viewBox="0 0 353 44" version="1.1" xmlns="http://www.w3.org/2000/svg" xmlns:xlink="http://www.w3.org/1999/xlink">
    <title>Magic VS-中文传播名</title>
    <g id="页面-1" stroke="none" stroke-width="1" fill="none" fill-rule="evenodd">
        <g id="画板备份-3" transform="translate(-1310.000000, -2071.000000)" fill="#000000" fill-rule="nonzero">
            <g id="Magic-VS-中文传播名" transform="translate(1310.000000, 2071.000000)">
                <path d="M22.966976,23.8893246 C24.6271555,25.7219898 26.5182364,27.3313671 28.5928066,28.6771072 C31.6458836,30.5971676 34.9523832,32.0810031 38.416315,33.0855368 L36.4848377,36.3087981 C32.5408883,34.821139 29.1126607,32.9590858 26.200155,30.7226384 C24.2001832,29.2293882 22.419185,27.4634124 20.9090477,25.4761609 L20.9090477,38.490698 L17.5072674,38.490698 L17.5072674,25.5703793 C15.9667779,27.5040144 14.2060616,29.2514172 12.2607898,30.7771859 C9.37638428,33.0169392 5.91922999,35.0037905 1.88932697,36.7377398 L0,33.7202714 C3.50394092,32.457482 6.84430753,30.7802234 9.94995948,28.7242164 C11.9446309,27.3252183 13.7745301,25.7049257 15.4047093,23.8942835 L1.88932697,23.8942835 L1.88932697,20.9933483 L17.5097468,20.9933483 L17.5097468,16.5303713 L20.9090477,16.5303713 L20.9090477,20.9933483 L36.6534391,20.9933483 L36.6534391,23.8893246 L22.966976,23.8893246 Z M27.2911049,6.63495928 L27.2911049,10.2450119 L23.9314749,10.2450119 L23.9314749,6.63495928 L14.5691408,6.63495928 L14.5691408,10.2450119 L11.1574427,10.2450119 L11.1574427,6.63495928 L1.42815267,6.63495928 L1.42815267,3.82080428 L11.1574427,3.82080428 L11.1574427,0 L14.5691408,0 L14.5691408,3.82080428 L23.9314749,3.82080428 L23.9314749,0 L27.2911049,0 L27.2911049,3.82080428 L37.1146134,3.82080428 L37.1146134,6.63495928 L27.2911049,6.63495928 Z M2.10007866,11.8417659 L36.4476462,11.8417659 L36.4476462,18.7668187 L33.1276872,18.7668187 L33.1276872,14.6955918 L5.41507887,14.6955918 L5.41507887,18.808969 L2.10007866,18.808969 L2.10007866,11.8417659 Z" id="形状"></path>
                <path d="M54.4557588,18.7668187 L54.4557588,31.736726 C55.212812,31.0639735 56.1640873,30.1259218 57.3095847,28.922571 L58.569136,31.2755517 C56.4979841,33.2888502 54.4549323,35.1071002 52.4399808,36.7303015 L51.0118281,34.712044 C51.5708408,33.8713783 51.8534206,32.8771479 51.8201229,31.8681359 L51.8201229,18.7668187 L49.2167196,18.7668187 L49.2167196,21.4941936 C49.2167196,25.1885468 48.8671197,28.3093249 48.16792,30.8565277 C47.4968205,33.0417335 46.2794195,35.5211653 44.515717,38.2948229 L42.4999391,36.0633343 C44.0371867,33.7392803 45.1008629,31.6400281 45.6909677,29.7655778 C46.2794195,27.6663256 46.5736454,24.9232476 46.5736454,21.5363439 L46.5736454,18.7668187 L43.0776467,18.7668187 L43.0776467,15.9551431 L49.1225012,15.9551431 L49.1225012,0 L52.0209569,0 L52.0209569,15.9551431 L57.5624867,15.9551431 L57.5624867,18.7668187 L54.4557588,18.7668187 Z M43.665272,4.53488061 L46.1843746,4.15552756 C46.7711734,6.59198246 47.3034248,9.40200507 47.7811286,12.5855954 L45.3016969,13.0814817 C44.8058106,9.72433119 44.2603356,6.86967881 43.665272,4.51752459 M54.9169331,4.0960212 L57.3963648,4.64149617 C56.6674119,8.08625331 55.9822623,10.9276821 55.3409159,13.1657824 L52.9879352,12.5360068 C53.6590347,10.1012048 54.3028605,7.2911822 54.9194125,4.10593892 M63.9891738,18.045304 L69.9918779,18.045304 C69.572854,16.8055882 69.2207747,15.8758013 68.9430783,15.2336285 L71.6307823,14.6038528 L72.8060329,18.045304 L80.4054912,18.045304 L80.4054912,20.4404351 L72.5085011,20.4404351 L72.5085011,23.4157531 L79.646785,23.4157531 L79.646785,25.6819537 L72.5085011,25.6819537 L72.5085011,28.7068604 L79.646785,28.7068604 L79.646785,30.9928965 L72.5085011,30.9928965 L72.5085011,34.1417747 L81.1170881,34.1417747 L81.1170881,36.5344264 L63.0618663,36.5344264 L63.0618663,38.634505 L60.16589,38.634505 L60.16589,23.5099715 C59.325933,24.4991206 58.4284795,25.4379695 57.4781861,26.3216471 L56.0921837,23.8025445 C58.9224457,21.2304077 61.145564,18.0612996 62.600692,14.524511 L65.414847,15.2683405 C64.8825957,16.3873907 64.4065448,17.3105658 63.9866943,18.0378657 M65.5388186,11.9508609 C63.16187,13.0418108 60.8386425,14.0071362 58.569136,14.8468371 L57.6467874,12.4541855 C60.3285824,11.5913197 62.9629291,10.5874043 65.5388186,9.44663484 L65.5388186,4.11337722 L58.3608638,4.11337722 L58.3608638,1.63642493 L68.2785906,1.63642493 L68.2785906,14.6112911 L65.5512157,14.6112911 L65.5388186,11.9508609 Z M59.4096634,5.33077819 C61.1155124,5.86302953 62.6973898,6.4233811 64.1552957,7.0118329 L63.3147683,9.24332144 C61.6023075,8.53585692 60.0204301,7.95980229 58.569136,7.51515753 L59.4096634,5.33077819 Z M69.5753334,20.4553117 L63.0618663,20.4553117 L63.0618663,23.4306297 L69.5703746,23.4306297 L69.5753334,20.4553117 Z M69.5753334,25.7017892 L63.0618663,25.7017892 L63.0618663,28.7242164 L69.5703746,28.7242164 L69.5753334,25.7017892 Z M69.5753334,30.9928965 L63.0618663,30.9928965 L63.0618663,34.1417747 L69.5703746,34.1417747 L69.5753334,30.9928965 Z M76.7656854,11.6384525 C75.1325664,12.3872409 72.9333104,13.2798363 70.1679176,14.3162387 L69.2034187,12.0500381 C71.7757535,11.2288513 74.2989818,10.261117 76.7607265,9.15158247 L76.7607265,4.11337722 L69.7811262,4.11337722 L69.7811262,1.67857527 L79.3963624,1.67857527 L79.3963624,15.4914894 L76.7508088,15.4914894 L76.7656854,11.6384525 Z M70.6638039,5.41507887 C72.4291593,5.97708339 73.9688864,6.53743496 75.2829852,7.09613357 L74.4424579,9.27803349 C72.7068557,8.55238647 71.1679551,7.97881127 69.825756,7.55730787 L70.6638039,5.41507887 Z" id="形状"></path>
                <polygon id="路径" points="91.0670475 3.82080428 102.110436 24.5612506 102.194737 24.5612506 113.319947 3.82080428 117.433324 3.82080428 117.433324 34.6798114 113.65467 34.6798114 113.65467 10.4532841 113.572849 10.4532841 103.074935 30.4821335 101.227759 30.4821335 90.6901739 10.4532841 90.6058732 10.4532841 90.6058732 34.6798114 86.8272193 34.6798114 86.8272193 3.82080428"></polygon>
                <path d="M132.421489,12.4269118 C134.828191,12.4269118 136.759668,13.0285872 138.215921,14.2319381 C139.782922,15.5543016 140.566422,17.3725516 140.566422,19.6866878 L140.566422,34.6748526 L136.95637,34.6748526 L136.95637,31.9078068 L136.914219,31.9078068 C135.178617,34.007059 132.86944,35.0575115 129.986687,35.0591645 C127.859335,35.0591645 126.110509,34.4988129 124.74021,33.3781098 C123.198003,32.1185585 122.427726,30.3903946 122.429379,28.1936181 C122.371246,26.1146233 123.346111,24.1416816 125.032783,22.9248257 C126.654331,21.6917216 128.753583,21.0751696 131.330539,21.0751696 C133.255942,21.0582623 135.166397,21.4144202 136.95637,22.1239692 L136.95637,19.8924807 C136.95637,18.5238344 136.558008,17.4816466 135.761284,16.7659173 C134.96456,16.050188 133.851295,15.6931498 132.421489,15.6948028 C129.818086,15.6948028 127.732884,16.7022785 126.165883,18.71723 L123.723643,16.4584677 C124.44929,15.4799187 125.541066,14.5980675 126.998972,13.8129141 C128.660478,12.9073417 130.521791,12.4309342 132.414051,12.4269118 M126.203074,28.0175784 C126.203074,30.5631283 127.589077,31.8367297 130.361081,31.8383827 C132.318179,31.8102825 133.89923,31.3548935 135.104234,30.4722158 C136.309238,29.5895381 136.924964,28.5473503 136.951411,27.3456524 L136.951411,25.2877241 C135.443916,24.4628998 133.59674,24.0504877 131.409881,24.0504877 C129.869327,24.0504877 128.637876,24.3719873 127.715528,25.0149866 C126.72867,25.6766127 126.156032,26.8031126 126.203074,27.9903047" id="形状"></path>
                <path d="M155.053742,43.9999976 C151.357736,43.9999976 148.236131,42.7544941 145.688928,40.2634917 L147.672474,37.5782671 C149.773379,39.6758663 152.237107,40.7254924 155.06366,40.7271454 C157.582762,40.7271454 159.429939,40.0411693 160.605189,38.6692171 C161.527538,37.5782671 161.989539,36.1228407 161.991192,34.3029378 L161.991192,31.3276197 L161.864741,31.3276197 C161.188081,32.3289805 160.262751,33.1372562 159.179516,33.6731622 C157.79538,34.4032233 156.251595,34.7780938 154.686786,34.7641121 C151.886681,34.7641121 149.563454,33.8128368 147.717103,31.9102862 C145.758352,29.8655815 144.778977,27.1382066 144.778977,23.7281615 C144.778977,20.5065533 145.744302,17.8188493 147.674953,15.6650496 C149.605604,13.5112499 152.041232,12.4368295 154.981838,12.4417713 C156.528837,12.4435004 158.048528,12.849492 159.390268,13.6195184 C160.50418,14.2102204 161.454092,15.0681223 162.154834,16.1163062 L162.196985,16.1163062 L162.196985,12.8484152 L165.598765,12.8484152 L165.598765,34.3029378 C165.598765,37.3245386 164.682202,39.6965283 162.849075,41.4189068 C161.015949,43.1412854 158.419984,44.0016482 155.06118,43.9999976 M148.545234,23.5546013 C148.545234,25.9332028 149.175009,27.8646801 150.434561,29.3490332 C151.531947,30.7249847 153.204708,31.5151286 154.964482,31.4887828 C157.278619,31.4887828 159.083645,30.775533 160.379561,29.3490332 C161.612665,28.0051812 162.228391,26.1993285 162.226741,23.9314749 C162.226741,21.3280716 161.513488,19.2709698 160.086988,17.7601694 C158.826678,16.4151341 157.055326,15.6673097 155.212425,15.7022411 C153.353158,15.6617459 151.581871,16.4928106 150.424643,17.9486062 C149.179968,19.446183 148.557631,21.314848 148.557631,23.5546013" id="形状"></path>
                <path d="M170.711353,5.37292853 C170.70289,4.7330057 170.9357,4.11335975 171.363444,3.63732633 C171.80195,3.14275005 172.438487,2.86994851 173.099046,2.89349681 C173.782677,2.8743965 174.441368,3.15088438 174.906552,3.65220292 C175.337542,4.11931603 175.566566,4.73776898 175.543766,5.37292853 C175.547631,6.00963177 175.297819,6.62167051 174.849525,7.07381869 C174.399735,7.54238581 173.778311,7.80726146 173.128799,7.80726146 C172.479287,7.80726146 171.857864,7.54238581 171.408073,7.07381869 C170.959779,6.62167051 170.709967,6.00963177 170.713833,5.37292853 M171.343608,12.8459357 L174.95614,12.8459357 L174.95614,34.6798114 L171.341129,34.6798114 L171.343608,12.8459357 Z" id="形状"></path>
                <path d="M190.36085,12.4269118 C192.028115,12.4299903 193.670197,12.8339204 195.148632,13.6046418 C196.431738,14.2545497 197.572891,15.1529761 198.505783,16.247716 L196.123049,18.5163961 C195.494112,17.7737512 194.738614,17.1483673 193.89156,16.6692194 C192.822519,16.038591 191.604512,15.7047731 190.363329,15.7022411 C188.320277,15.7022411 186.662364,16.4229292 185.389589,17.8643055 C184.116814,19.3056818 183.4796,21.2445974 183.477947,23.6810523 C183.477947,26.1158543 184.121773,28.0746053 185.409424,29.5573055 C186.697076,31.0400057 188.404578,31.7838352 190.53193,31.788794 C191.822198,31.7850781 193.080668,31.3880763 194.139503,30.6507349 C195.036917,30.0330653 195.807137,29.248535 196.408183,28.3399045 L199.053737,30.2713818 C198.435532,31.4185322 197.41318,32.4929527 195.98668,33.4946431 C194.56018,34.4963335 192.684904,35.0211465 190.36085,35.0690822 C187.254948,35.0690822 184.701133,34.0120178 182.699406,31.897889 C180.697678,29.7837603 179.696814,27.0481206 179.696814,23.6909701 C179.696814,20.4148143 180.683628,17.7204985 182.657255,15.6080227 C184.630883,13.4955468 187.198748,12.4384824 190.36085,12.4368295" id="路径"></path>
                <polygon id="路径" points="223.949711 34.6798114 212.7402 3.82080428 216.769277 3.82080428 225.965489 30.2292315 226.04979 30.2292315 235.117071 3.82080428 239.148627 3.82080428 227.939117 34.6798114"></polygon>
                <path d="M242.885131,28.4663555 C244.311631,30.6780086 246.494357,31.7838352 249.43331,31.7838352 C250.494591,31.8241164 251.54266,31.5376501 252.435902,30.9631433 C253.199138,30.4938302 253.658855,29.6572959 253.645865,28.7614079 C253.645865,27.7250055 253.169814,26.8985282 252.217712,26.2819762 C251.518512,25.8356785 250.370535,25.4298782 248.773781,25.0645752 C246.396833,24.5339768 244.619907,23.8347771 243.443003,22.966976 C241.999749,21.9324649 241.163753,20.2493277 241.211515,18.4742457 C241.211515,16.5964894 242.023942,15.0989127 243.648796,13.9815155 C245.136455,12.945113 246.941481,12.4269118 249.063875,12.4269118 C250.675909,12.431587 252.267219,12.7904782 253.725206,13.4781908 C255.093853,14.1228431 256.085625,14.8782433 256.700525,15.7443914 L254.389694,18.0527423 C253.019102,16.5097324 251.037779,15.6497077 248.974615,15.7022411 C247.825812,15.7022411 246.888587,15.9402665 246.16294,16.4163174 C245.408866,16.861985 244.957465,17.6830597 244.98521,18.5585464 C244.98521,19.6230491 245.517461,20.4346497 246.581964,20.9933483 C247.170415,21.3007979 248.359716,21.6644479 250.149866,22.0842983 C252.419372,22.6182026 254.140925,23.3620321 255.314522,24.3157869 C256.673081,25.351165 257.453815,26.9743918 257.414601,28.6820661 C257.414601,30.7251178 256.5468,32.334269 254.811198,33.5095197 C253.298744,34.5459221 251.437517,35.0641233 249.227517,35.0641233 C247.336275,35.0816388 245.471478,34.6192782 243.80748,33.7202714 C242.296679,32.9103237 241.222259,31.9301217 240.584218,30.7796653 L242.885131,28.4663555 Z" id="路径"></path>
                <path d="M284.366024,26.8696015 L286.716525,29.0118305 C283.512742,32.0633807 280.025818,34.8031066 276.302912,37.1939552 L274.118532,34.6327022 C277.802103,32.4180564 281.236851,29.8137327 284.363544,26.8646427 M295.520987,5.6208717 C294.682939,6.26552395 292.962213,7.51102515 290.35881,9.3573753 C288.509154,10.5888264 286.619827,11.764077 284.690829,12.8831272 C288.857927,12.7740322 292.88783,12.6087368 296.780538,12.3872409 C299.076492,10.9623941 301.385669,9.46481734 303.70807,7.89451059 L306.366021,10.16567 C302.790681,12.4798063 299.278152,14.5774055 295.828436,16.4584677 C291.937382,18.6073086 288.046327,20.5660596 284.155272,22.3347209 C292.218384,22.0570246 298.416963,21.7776752 302.75101,21.496673 C301.937756,20.7396198 300.664155,19.5222189 298.930206,17.8444701 L301.280707,15.994814 C305.451111,19.8577686 308.599989,22.8950725 310.727342,25.1067256 L308.418991,27.2489546 C307.493336,26.2389994 306.501564,25.2034234 305.443673,24.1422266 C302.111316,24.3075221 298.766563,24.4612468 295.409413,24.6034009 L295.409413,33.0012362 C295.409413,34.7070852 295.058986,35.9525864 294.358133,36.7377398 C293.60108,37.4947929 292.313429,37.9567937 290.495179,38.1237421 C289.055869,38.2328985 287.61036,38.2328985 286.17105,38.1237421 L285.382591,34.7641121 C286.810743,34.8748601 288.168645,34.9310605 289.456297,34.9327135 C290.351372,34.9054397 290.996024,34.7070852 291.387774,34.3450881 C291.779524,33.8954845 291.9754,33.2235585 291.9754,32.3293102 L291.9754,24.7720023 C287.133896,24.9687039 282.277516,25.1505289 277.406259,25.3174773 L276.910372,22.4190216 C278.327128,22.1452769 279.707439,21.7084698 281.02375,21.1173199 C284.437101,19.4643655 288.03393,17.5477647 291.814237,15.3675178 C287.420684,15.5328132 282.984154,15.6584378 278.504647,15.7443914 L278.043473,13.0988378 C279.061868,12.8313565 280.047314,12.4513151 280.981599,11.9657375 C284.147762,10.1729935 287.179047,8.15186107 290.051361,5.91840351 C285.738802,6.14320532 281.260122,6.30850077 276.61532,6.41428985 L275.96075,3.31747964 C289.956316,3.0645776 300.970778,2.47612581 309.004137,1.55212425 L310.052936,4.49273027 C305.546982,4.96878116 300.704652,5.34648126 295.525946,5.62583057 M299.230217,29.2572943 L301.285666,26.8621632 C305.06432,29.411019 308.535524,31.8466475 311.699279,34.1690485 L309.683501,36.8964234 C306.212296,34.1541719 302.727868,31.6077955 299.230217,29.2572943" id="形状"></path>
                <path d="M330.634699,23.386 C332.0543,20.5900484 333.071828,17.6075811 333.657126,14.5269904 L325.846916,14.5269904 C324.089384,18.2842061 321.75162,21.7414863 318.919384,24.7720023 L316.779634,22.2107493 C321.03082,17.3716834 323.991052,11.5373568 325.385742,5.24895695 L318.19539,5.24895695 L318.19539,2.18189991 L338.896165,2.18189991 L338.896165,5.24895695 L328.901576,5.24895695 C328.408048,7.35000648 327.805558,9.42396071 327.09655,11.4624128 L337.048989,11.4624128 L337.048989,14.4377309 C336.123334,19.7271852 334.443933,24.2199155 332.010784,27.9159217 C329.40738,31.861524 325.628726,35.4715766 320.674822,38.7460794 L318.23754,36.0608549 C322.883995,33.1202489 326.437847,29.8589697 328.899097,26.2770173 C327.163495,24.7100165 325.302268,23.1711159 323.315416,21.6603155 L325.162593,19.3916355 C326.927948,20.5668861 328.746198,21.896688 330.617343,23.3810411 M340.820204,5.28118956 L344.008754,5.28118956 L344.008754,28.5134647 L340.820204,28.5134647 L340.820204,5.28118956 Z M349.190766,0.208272264 L352.592546,0.208272264 L352.592546,32.2871598 C352.592546,34.1616102 352.158646,35.5748863 351.290845,36.5269881 C350.451144,37.4228894 349.080018,37.9129904 347.177467,37.9972911 C345.104662,38.0518386 343.438484,38.0377884 342.178933,37.9551407 L341.467336,34.3426087 C343.313686,34.5079042 344.883993,34.5905519 346.178256,34.5905519 C347.353507,34.5360044 348.139487,34.3128555 348.528758,33.9186259 C348.976708,33.4227395 349.200684,32.6392391 349.200684,31.5681246 L349.190766,0.208272264 Z" id="形状"></path>
            </g>
        </g>
    </g>
</svg>